<svg width="20" height="20" viewBox="0 0 20 20" fill="none" xmlns="http://www.w3.org/2000/svg">
<path d="M19 13.546C18.477 13.546 17.954 13.697 17.5 14C17.0558 14.2962 16.5339 14.4542 16 14.4542C15.4661 14.4542 14.9442 14.2962 14.5 14C14.0558 13.7038 13.5339 13.5458 13 13.5458C12.4661 13.5458 11.9442 13.7038 11.5 14C11.0558 14.2962 10.5339 14.4542 10 14.4542C9.46613 14.4542 8.9442 14.2962 8.5 14C8.0558 13.7038 7.53387 13.5458 7 13.5458C6.46613 13.5458 5.9442 13.7038 5.5 14C5.0558 14.2962 4.53387 14.4542 4 14.4542C3.46613 14.4542 2.9442 14.2962 2.5 14C2.05586 13.7037 1.53388 13.5458 1 13.546H19ZM7 4V6V4ZM10 4V6V4ZM13 4V6V4ZM7 1H7.01H7ZM10 1H10.01H10ZM13 1H13.01H13ZM19 19V12C19 11.4696 18.7893 10.9609 18.4142 10.5858C18.0391 10.2107 17.5304 10 17 10H3C2.46957 10 1.96086 10.2107 1.58579 10.5858C1.21071 10.9609 1 11.4696 1 12V19H19ZM16 10V8C16 7.46957 15.7893 6.96086 15.4142 6.58579C15.0391 6.21071 14.5304 6 14 6H6C5.46957 6 4.96086 6.21071 4.58579 6.58579C4.21071 6.96086 4 7.46957 4 8V10H16Z" stroke="white" stroke-linecap="round" stroke-linejoin="round"/>
</svg>
